<svg width="63" height="63" viewBox="0 0 63 63" fill="none" xmlns="http://www.w3.org/2000/svg">
<g clip-path="url(#clip0_4_7)">
<rect x="-11" width="85" height="71" fill="#F5F6F7"/>
<rect x="-11" width="85" height="71" fill="url(#paint0_radial_4_7)"/>
<rect x="-11" width="85" height="71" fill="url(#paint1_radial_4_7)" fill-opacity="0.6"/>
<path fill-rule="evenodd" clip-rule="evenodd" d="M31.5 63C48.897 63 63 48.897 63 31.5C63 14.103 48.897 0 31.5 0C14.103 0 0 14.103 0 31.5C0 48.897 14.103 63 31.5 63ZM45.4634 25.4295C45.6911 25.9607 46.283 26.583 46.8598 27.175C47.8616 28.2223 49 29.4214 49 31C49 32.5786 47.8616 33.7777 46.8598 34.825C46.283 35.417 45.6607 36.0696 45.4634 36.5705C45.2664 37.0707 45.2509 37.8886 45.2358 38.6919L45.2357 38.6955C45.2205 40.1679 45.1902 41.8527 44.0214 43.0214C42.8527 44.1902 41.1679 44.2205 39.6955 44.2357C39.608 44.2374 39.5206 44.2387 39.4337 44.2399C38.7223 44.2505 38.044 44.2605 37.5705 44.4634C37.0393 44.6911 36.417 45.283 35.825 45.8598C34.7777 46.8616 33.5786 48 32 48C30.4214 48 29.2223 46.8616 28.175 45.8598C27.583 45.283 26.9304 44.6607 26.4295 44.4634C25.9293 44.2664 25.1114 44.2509 24.3081 44.2358L24.3045 44.2357C22.8321 44.2205 21.1473 44.1902 19.9786 43.0214C18.8098 41.8527 18.7795 40.1679 18.7643 38.6955C18.7626 38.608 18.7613 38.5206 18.7601 38.4337C18.7495 37.7223 18.7395 37.044 18.5366 36.5705C18.3089 36.0393 17.717 35.417 17.1402 34.825C16.1384 33.7777 15 32.5786 15 31C15 29.4214 16.1384 28.2223 17.1402 27.175C17.717 26.583 18.3393 25.9304 18.5366 25.4295C18.7336 24.9293 18.7491 24.1114 18.7642 23.3081L18.7643 23.3045C18.7795 21.8321 18.8098 20.1473 19.9786 18.9786C21.1473 17.8098 22.8321 17.7795 24.3045 17.7643C24.392 17.7626 24.4794 17.7613 24.5663 17.7601C25.2777 17.7495 25.956 17.7395 26.4295 17.5366C26.9607 17.3089 27.583 16.717 28.175 16.1402C29.2223 15.1384 30.4214 14 32 14C33.5786 14 34.7777 15.1384 35.825 16.1402C36.417 16.717 37.0696 17.3393 37.5705 17.5366C38.0707 17.7336 38.8886 17.7491 39.6919 17.7642L39.6955 17.7643C41.1679 17.7795 42.8527 17.8098 44.0214 18.9786C45.1902 20.1473 45.2205 21.8321 45.2357 23.3045C45.2374 23.392 45.2387 23.4794 45.2399 23.5663C45.2505 24.2777 45.2605 24.956 45.4634 25.4295ZM30.6187 36.7375L39.5134 28.2375C39.7316 28.0127 39.8545 27.7122 39.8563 27.3988C39.8581 27.0855 39.7388 26.7836 39.5232 26.5562C39.3076 26.3289 39.0124 26.1937 38.6994 26.1789C38.3864 26.164 38.0799 26.2708 37.8438 26.4768L29.7688 34.1723L26.1562 30.7268C26.0422 30.6093 25.9056 30.5161 25.7547 30.4528C25.6037 30.3894 25.4415 30.3573 25.2778 30.3582C25.1141 30.3592 24.9523 30.3932 24.8021 30.4583C24.6519 30.5234 24.5164 30.6182 24.4038 30.737C24.2911 30.8557 24.2037 30.9961 24.1467 31.1495C24.0896 31.303 24.0642 31.4664 24.072 31.6299C24.0797 31.7934 24.1204 31.9537 24.1917 32.1011C24.2629 32.2484 24.3633 32.3799 24.4866 32.4875L28.9339 36.7375C29.1584 36.9529 29.4577 37.0726 29.7688 37.0714C30.0844 37.0734 30.3888 36.9538 30.6187 36.7375Z" fill="#131313"/>
</g>
<defs>
<radialGradient id="paint0_radial_4_7" cx="0" cy="0" r="1" gradientUnits="userSpaceOnUse" gradientTransform="translate(-19.9474 56.9335) rotate(3.10872) scale(127.477 60.8979)">
<stop stop-color="#EF98DC" stop-opacity="0.43"/>
<stop offset="1" stop-color="white" stop-opacity="0"/>
</radialGradient>
<radialGradient id="paint1_radial_4_7" cx="0" cy="0" r="1" gradientUnits="userSpaceOnUse" gradientTransform="translate(74 5.15151) rotate(156.212) scale(124.671 74.2687)">
<stop stop-color="#CC7AFF"/>
<stop offset="1" stop-color="white" stop-opacity="0"/>
</radialGradient>
<clipPath id="clip0_4_7">
<rect width="63" height="63" rx="31.5" fill="white"/>
</clipPath>
</defs>
</svg>
