<svg width="63" height="63" viewBox="0 0 63 63" fill="none" xmlns="http://www.w3.org/2000/svg">
<g clip-path="url(#clip0_4_2)">
<rect x="-11" width="85" height="71" fill="#F5F6F7"/>
<rect x="-11" width="85" height="71" fill="url(#paint0_radial_4_2)"/>
<rect x="-11" width="85" height="71" fill="url(#paint1_radial_4_2)" fill-opacity="0.6"/>
<path fill-rule="evenodd" clip-rule="evenodd" d="M31.5 63C48.897 63 63 48.897 63 31.5C63 14.103 48.897 0 31.5 0C14.103 0 0 14.103 0 31.5C0 48.897 14.103 63 31.5 63ZM31.6769 15.2001L46.4461 25.2011C46.6177 25.3142 46.7584 25.4694 46.8552 25.6524C46.9521 25.8355 47.0018 26.0403 46.9999 26.2481V42.4997C46.9999 43.1629 46.7406 43.7988 46.279 44.2677C45.8174 44.7366 45.1913 45 44.5384 45H17.4616C16.8087 45 16.1826 44.7366 15.721 44.2677C15.2594 43.7988 15.0001 43.1629 15.0001 42.4997V26.2481C14.9982 26.0403 15.0479 25.8355 15.1448 25.6524C15.2416 25.4694 15.3823 25.3142 15.5539 25.2011L30.3231 15.2001C30.5254 15.0694 30.7602 15 31 15C31.2398 15 31.4746 15.0694 31.6769 15.2001ZM17.4616 41.2496L26.1846 34.999L17.4616 28.6702V41.2496ZM33.2923 36.2491H28.7077L20 42.4997H42L33.2923 36.2491ZM44.5384 28.6702L35.8154 34.999L44.5384 41.2496V28.6702Z" fill="#131313"/>
</g>
<defs>
<radialGradient id="paint0_radial_4_2" cx="0" cy="0" r="1" gradientUnits="userSpaceOnUse" gradientTransform="translate(-19.9474 56.9335) rotate(3.10872) scale(127.477 60.8979)">
<stop stop-color="#EF98DC" stop-opacity="0.43"/>
<stop offset="1" stop-color="white" stop-opacity="0"/>
</radialGradient>
<radialGradient id="paint1_radial_4_2" cx="0" cy="0" r="1" gradientUnits="userSpaceOnUse" gradientTransform="translate(74 5.15151) rotate(156.212) scale(124.671 74.2687)">
<stop stop-color="#CC7AFF"/>
<stop offset="1" stop-color="white" stop-opacity="0"/>
</radialGradient>
<clipPath id="clip0_4_2">
<rect width="63" height="63" rx="31.5" fill="white"/>
</clipPath>
</defs>
</svg>
