<svg width="65" height="70" viewBox="0 0 65 70" fill="none" xmlns="http://www.w3.org/2000/svg">
<mask id="mask0_4_29" style="mask-type:alpha" maskUnits="userSpaceOnUse" x="0" y="0" width="65" height="70">
<path fill-rule="evenodd" clip-rule="evenodd" d="M46 31.7459C47.469 31.2552 49.0118 31.0019 50.57 31C52.6578 31.0033 54.7202 31.4587 56.6151 32.3347C58.51 33.2108 60.1925 34.4867 61.5468 36.0748C62.9011 37.6629 63.8951 39.5254 64.4603 41.5341C65.0255 43.5428 65.1486 45.65 64.821 47.7108C64.4934 49.7716 63.7229 51.737 62.5626 53.4717C61.4024 55.2065 59.8798 56.6694 58.0997 57.7598C56.3196 58.8502 54.3242 59.5422 52.2509 59.7881C50.1776 60.0341 48.0756 59.8283 46.0896 59.1847L44.3733 60.9181C44.098 61.1863 43.728 61.3355 43.3435 61.3333H40.4529V64.2222C40.4529 64.6053 40.3007 64.9727 40.0296 65.2436C39.7586 65.5145 39.391 65.6667 39.0076 65.6667H36.1171V68.5556C36.1171 68.9386 35.9648 69.306 35.6937 69.5769C35.4227 69.8478 35.0551 70 34.6718 70H27.4453C27.062 70 26.6944 69.8478 26.4233 69.5769C26.1523 69.306 26 68.9386 26 68.5556V61.3333C25.9979 60.949 26.1471 60.5793 26.4155 60.3042L36.7437 50H42.1667C43.1833 50 44.1584 49.6098 44.8773 48.9152C45.5961 48.2206 46 47.2786 46 46.2963V31.7459ZM44.2474 32.4619C44.1674 32.5009 44.0877 32.5406 44.0083 32.5811C41.9763 33.6177 40.2184 35.1198 38.8779 36.9647C37.5375 38.8096 36.6524 40.9451 36.2951 43.197C35.9995 45.0599 36.0719 46.9587 36.504 48.7871C36.0719 46.9588 35.9995 45.0599 36.2951 43.197C36.3272 42.9946 36.3636 42.7931 36.4042 42.5926H36.4167C36.925 42.5926 37.4125 42.3975 37.772 42.0502C38.1314 41.7029 38.3334 41.2319 38.3334 40.7407C38.3334 40.2496 38.1314 39.7786 37.772 39.4313C37.6961 39.358 37.6145 39.2914 37.5281 39.232C37.9068 38.4393 38.3581 37.6802 38.878 36.9647C40.2184 35.1198 41.9764 33.6177 44.0083 32.5811C44.0877 32.5406 44.1674 32.5009 44.2474 32.4619ZM52.5773 44.2354C53.0526 44.5528 53.6115 44.7222 54.1832 44.7222C54.9498 44.7222 55.6851 44.4179 56.2271 43.8761C56.7692 43.3343 57.0738 42.5995 57.0738 41.8333C57.0738 41.262 56.9042 40.7034 56.5866 40.2284C56.269 39.7533 55.8176 39.383 55.2894 39.1643C54.7612 38.9457 54.18 38.8885 53.6193 39C53.0586 39.1114 52.5435 39.3866 52.1392 39.7906C51.735 40.1946 51.4597 40.7093 51.3482 41.2697C51.2366 41.8301 51.2939 42.411 51.5126 42.9389C51.7314 43.4667 52.1019 43.9179 52.5773 44.2354Z" fill="white"/>
<path fill-rule="evenodd" clip-rule="evenodd" d="M33.5417 16.6667H42.1667C43.1833 16.6667 44.1584 17.0569 44.8772 17.7515C45.5961 18.446 46 19.3881 46 20.3704L46 31.7459C45.3183 31.9737 44.6524 32.2525 44.0083 32.5811C41.9764 33.6177 40.2184 35.1198 38.878 36.9647C38.3581 37.6802 37.9068 38.4393 37.5281 39.232C37.2057 39.0103 36.8177 38.8889 36.4167 38.8889H9.58333C9.075 38.8889 8.58749 39.084 8.22805 39.4313C7.8686 39.7786 7.66667 40.2496 7.66667 40.7407C7.66667 41.2319 7.8686 41.7029 8.22805 42.0502C8.58749 42.3975 9.075 42.5926 9.58333 42.5926H36.4167L36.4042 42.5926C36.3636 42.7931 36.3272 42.9946 36.2951 43.197C35.9377 45.4489 36.1182 47.7533 36.8217 49.9222L36.7437 50L3.83333 50C2.81667 50 1.84165 49.6098 1.12276 48.9152C0.403868 48.2206 0 47.2786 0 46.2963V20.3704C0 19.3881 0.403868 18.446 1.12276 17.7515C1.84165 17.0569 2.81667 16.6667 3.83333 16.6667H12.4583V10.1852C12.4583 7.48391 13.569 4.89326 15.5459 2.98317C17.5229 1.07308 20.2042 0 23 0C25.7958 0 28.4771 1.07308 30.4541 2.98317C32.431 4.89326 33.5417 7.48391 33.5417 10.1852V16.6667ZM18.2565 5.60209C16.9984 6.8176 16.2917 8.46619 16.2917 10.1852V16.6667H29.7083V10.1852C29.7083 8.46619 29.0016 6.8176 27.7435 5.60209C26.4855 4.38657 24.7792 3.7037 23 3.7037C21.2208 3.7037 19.5145 4.38657 18.2565 5.60209ZM9.58333 35.1852H36.4167C36.925 35.1852 37.4125 34.9901 37.772 34.6428C38.1314 34.2955 38.3333 33.8245 38.3333 33.3333C38.3333 32.8422 38.1314 32.3712 37.772 32.0239C37.4125 31.6766 36.925 31.4815 36.4167 31.4815H9.58333C9.075 31.4815 8.58749 31.6766 8.22805 32.0239C7.8686 32.3712 7.66667 32.8422 7.66667 33.3333C7.66667 33.8245 7.8686 34.2955 8.22805 34.6428C8.58749 34.9901 9.075 35.1852 9.58333 35.1852ZM9.58333 27.7778H36.4167C36.925 27.7778 37.4125 27.5827 37.772 27.2354C38.1314 26.8881 38.3333 26.4171 38.3333 25.9259C38.3333 25.4348 38.1314 24.9638 37.772 24.6165C37.4125 24.2692 36.925 24.0741 36.4167 24.0741H9.58333C9.075 24.0741 8.58749 24.2692 8.22805 24.6165C7.8686 24.9638 7.66667 25.4348 7.66667 25.9259C7.66667 26.4171 7.8686 26.8881 8.22805 27.2354C8.58749 27.5827 9.075 27.7778 9.58333 27.7778Z" fill="white"/>
</mask>
<g mask="url(#mask0_4_29)">
<rect x="-31" y="-2" width="97" height="89" fill="#F5F6F7"/>
<rect x="-31" y="-2" width="97" height="89" fill="url(#paint0_radial_4_29)"/>
<rect x="-31" y="-2" width="97" height="89" fill="url(#paint1_radial_4_29)" fill-opacity="0.5"/>
</g>
<defs>
<radialGradient id="paint0_radial_4_29" cx="0" cy="0" r="1" gradientUnits="userSpaceOnUse" gradientTransform="translate(-41.2105 69.3673) rotate(3.41407) scale(145.517 76.3137)">
<stop stop-color="#EF98CF" stop-opacity="0.48"/>
<stop offset="1" stop-color="white" stop-opacity="0"/>
</radialGradient>
<radialGradient id="paint1_radial_4_29" cx="0" cy="0" r="1" gradientUnits="userSpaceOnUse" gradientTransform="translate(66 4.45753) rotate(154.163) scale(144.643 91.5712)">
<stop stop-color="#FF837A"/>
<stop offset="1" stop-color="white" stop-opacity="0"/>
</radialGradient>
</defs>
</svg>
