<svg width="473" height="79" viewBox="0 0 473 79" fill="none" xmlns="http://www.w3.org/2000/svg">
<path d="M125.249 43.6809C125.612 44.3621 125.943 45.0752 126.242 45.8203C126.563 46.5442 126.873 47.2787 127.172 48.0238C127.471 47.2574 127.78 46.5016 128.101 45.7565C128.422 45.0114 128.763 44.2983 129.126 43.617L142.843 18.0383C143.014 17.719 143.185 17.4635 143.356 17.2719C143.549 17.0803 143.751 16.9419 143.965 16.8568C144.2 16.7716 144.456 16.7184 144.734 16.6971C145.012 16.6758 145.343 16.6651 145.727 16.6651H152.233V62.8409H144.638V33.0151C144.638 32.4615 144.649 31.8549 144.67 31.1948C144.713 30.5349 144.766 29.8643 144.83 29.183L130.825 55.3685C130.505 55.9646 130.089 56.4329 129.575 56.7735C129.062 57.0929 128.464 57.2526 127.78 57.2526H126.595C125.911 57.2526 125.313 57.0929 124.8 56.7735C124.287 56.4329 123.871 55.9646 123.55 55.3685L109.353 29.0873C109.439 29.7898 109.492 30.4817 109.513 31.163C109.556 31.8229 109.577 32.4403 109.577 33.0151V62.8409H101.982V16.6651H108.487C108.872 16.6651 109.204 16.6758 109.481 16.6971C109.759 16.7184 110.004 16.7716 110.218 16.8568C110.453 16.9419 110.667 17.0803 110.859 17.2719C111.051 17.4635 111.233 17.719 111.404 18.0383L125.249 43.6809Z" fill="white"/>
<path d="M174.711 29.5663C176.784 29.5663 178.685 29.8963 180.416 30.5562C182.168 31.2161 183.674 32.1848 184.935 33.4622C186.195 34.7182 187.178 36.2723 187.883 38.1244C188.588 39.9553 188.941 42.0522 188.941 44.4153C188.941 45.0114 188.909 45.5117 188.844 45.9162C188.802 46.2994 188.705 46.6081 188.556 46.8422C188.428 47.0552 188.246 47.2148 188.012 47.3213C187.777 47.4065 187.477 47.449 187.114 47.449H166.795C167.03 50.8126 167.938 53.2822 169.52 54.8576C171.101 56.4329 173.195 57.2206 175.801 57.2206C177.083 57.2206 178.183 57.0716 179.102 56.7735C180.042 56.4755 180.854 56.1456 181.537 55.7836C182.243 55.4217 182.852 55.0917 183.365 54.7937C183.899 54.4956 184.411 54.3466 184.902 54.3466C185.223 54.3466 185.501 54.4105 185.736 54.5382C185.971 54.6659 186.174 54.8469 186.345 55.0811L188.652 57.9551C187.777 58.977 186.794 59.8392 185.703 60.5417C184.614 61.2229 183.471 61.7765 182.274 62.2023C181.1 62.6068 179.892 62.8941 178.653 63.0644C177.435 63.2347 176.25 63.3199 175.096 63.3199C172.81 63.3199 170.684 62.9474 168.719 62.2023C166.753 61.4359 165.044 60.3182 163.59 58.8492C162.138 57.359 160.995 55.5282 160.161 53.3567C159.328 51.1639 158.912 48.6305 158.912 45.7565C158.912 43.5212 159.275 41.4242 160.001 39.4656C160.727 37.4858 161.764 35.772 163.11 34.3243C164.477 32.8554 166.133 31.6952 168.077 30.8436C170.043 29.9921 172.254 29.5663 174.711 29.5663ZM174.871 35.2185C172.564 35.2185 170.758 35.8678 169.456 37.1664C168.152 38.4651 167.319 40.3065 166.956 42.6909H181.826C181.826 41.6691 181.687 40.711 181.409 39.8169C181.132 38.9015 180.704 38.1031 180.127 37.4219C179.551 36.7407 178.824 36.2084 177.948 35.8252C177.072 35.4207 176.047 35.2185 174.871 35.2185Z" fill="white"/>
<path d="M195.362 62.8409V30.0772H200.201C201.227 30.0772 201.9 30.5562 202.22 31.5142L202.733 33.9412C203.31 33.3024 203.908 32.717 204.528 32.1848C205.168 31.6526 205.842 31.1949 206.547 30.8117C207.273 30.4285 208.043 30.1304 208.854 29.9176C209.688 29.6833 210.595 29.5663 211.578 29.5663C213.651 29.5663 215.349 30.1304 216.674 31.2588C218.02 32.3658 219.024 33.8454 219.686 35.6975C220.199 34.6118 220.84 33.6857 221.609 32.9193C222.378 32.1316 223.223 31.4929 224.141 31.0033C225.06 30.5137 226.032 30.1517 227.057 29.9176C228.104 29.6833 229.151 29.5663 230.198 29.5663C232.014 29.5663 233.627 29.8431 235.038 30.3965C236.448 30.95 237.633 31.7591 238.595 32.8235C239.556 33.8879 240.282 35.1866 240.774 36.7194C241.287 38.2522 241.544 40.0085 241.544 41.9884V62.8409H233.627V41.9884C233.627 39.9021 233.168 38.3373 232.249 37.2942C231.33 36.2298 229.984 35.6975 228.211 35.6975C227.399 35.6975 226.641 35.8358 225.935 36.1126C225.252 36.3894 224.643 36.7939 224.109 37.3261C223.597 37.837 223.19 38.4864 222.891 39.274C222.592 40.0617 222.442 40.9665 222.442 41.9884V62.8409H214.494V41.9884C214.494 39.7956 214.046 38.1989 213.148 37.1984C212.273 36.1978 210.969 35.6975 209.239 35.6975C208.107 35.6975 207.038 35.9849 206.033 36.5597C205.051 37.1132 204.132 37.8796 203.277 38.8589V62.8409H195.362Z" fill="white"/>
<path d="M249.414 62.8409V15.3878H257.33V34.1008C258.633 32.717 260.108 31.6206 261.753 30.8117C263.398 29.9814 265.321 29.5663 267.522 29.5663C269.316 29.5663 270.951 29.9388 272.425 30.684C273.92 31.4078 275.202 32.4722 276.271 33.8773C277.36 35.2824 278.193 37.0174 278.77 39.0825C279.368 41.1475 279.667 43.5212 279.667 46.2036C279.667 48.6518 279.337 50.9191 278.674 53.0054C278.011 55.0917 277.061 56.9013 275.822 58.4341C274.604 59.9669 273.119 61.1697 271.367 62.0426C269.636 62.8941 267.692 63.3199 265.534 63.3199C264.53 63.3199 263.611 63.2135 262.778 63.0006C261.945 62.8089 261.186 62.5323 260.502 62.1703C259.819 61.8084 259.178 61.372 258.58 60.8611C258.003 60.3288 257.447 59.7434 256.913 59.1047L256.561 61.3081C256.433 61.8617 256.208 62.2555 255.888 62.4896C255.588 62.7238 255.172 62.8409 254.638 62.8409H249.414ZM264.797 35.6975C263.152 35.6975 261.742 36.0488 260.567 36.7513C259.413 37.4325 258.334 38.4012 257.33 39.6573V54.3466C258.227 55.4537 259.199 56.2307 260.246 56.6777C261.315 57.1035 262.468 57.3165 263.708 57.3165C264.904 57.3165 265.983 57.0929 266.944 56.6459C267.905 56.1988 268.718 55.5175 269.38 54.6021C270.064 53.6867 270.588 52.5371 270.951 51.1533C271.314 49.7482 271.495 48.0983 271.495 46.2036C271.495 44.2876 271.335 42.6696 271.015 41.3497C270.715 40.0085 270.278 38.9228 269.7 38.0925C269.123 37.2622 268.419 36.6555 267.586 36.2723C266.774 35.8891 265.844 35.6975 264.797 35.6975Z" fill="white"/>
<path d="M299.461 29.5663C301.533 29.5663 303.435 29.8963 305.166 30.5562C306.918 31.2161 308.424 32.1848 309.684 33.4622C310.945 34.7182 311.928 36.2723 312.633 38.1244C313.338 39.9553 313.691 42.0522 313.691 44.4153C313.691 45.0114 313.658 45.5117 313.594 45.9162C313.552 46.2994 313.456 46.6081 313.306 46.8422C313.178 47.0552 312.996 47.2148 312.761 47.3213C312.526 47.4065 312.227 47.449 311.864 47.449H291.545C291.781 50.8126 292.689 53.2822 294.269 54.8576C295.85 56.4329 297.944 57.2206 300.551 57.2206C301.833 57.2206 302.934 57.0716 303.852 56.7735C304.792 56.4755 305.604 56.1456 306.288 55.7836C306.992 55.4217 307.601 55.0917 308.114 54.7937C308.648 54.4956 309.161 54.3466 309.653 54.3466C309.973 54.3466 310.251 54.4105 310.486 54.5382C310.72 54.6659 310.924 54.8469 311.094 55.0811L313.403 57.9551C312.526 58.977 311.543 59.8392 310.454 60.5417C309.365 61.2229 308.221 61.7765 307.025 62.2023C305.85 62.6068 304.643 62.8941 303.403 63.0644C302.186 63.2347 300.999 63.3199 299.846 63.3199C297.559 63.3199 295.434 62.9474 293.468 62.2023C291.502 61.4359 289.793 60.3182 288.341 58.8492C286.888 57.359 285.744 55.5282 284.912 53.3567C284.078 51.1639 283.661 48.6305 283.661 45.7565C283.661 43.5212 284.024 41.4242 284.751 39.4656C285.478 37.4858 286.514 35.772 287.86 34.3243C289.227 32.8554 290.883 31.6952 292.828 30.8436C294.793 29.9921 297.004 29.5663 299.461 29.5663ZM299.622 35.2185C297.314 35.2185 295.509 35.8678 294.205 37.1664C292.902 38.4651 292.069 40.3065 291.706 42.6909H306.576C306.576 41.6691 306.437 40.711 306.159 39.8169C305.881 38.9015 305.454 38.1031 304.878 37.4219C304.3 36.7407 303.574 36.2084 302.698 35.8252C301.822 35.4207 300.796 35.2185 299.622 35.2185Z" fill="white"/>
<path d="M320.112 62.8409V30.0772H324.759C325.571 30.0772 326.137 30.2262 326.457 30.5242C326.778 30.8223 326.992 31.3333 327.098 32.0571L327.579 36.0168C328.754 33.9944 330.132 32.3977 331.714 31.2268C333.294 30.0559 335.068 29.4705 337.033 29.4705C338.657 29.4705 340.003 29.843 341.071 30.5882L340.046 36.4958C339.982 36.879 339.843 37.1558 339.629 37.3261C339.416 37.4751 339.127 37.5496 338.764 37.5496C338.444 37.5496 338.005 37.4751 337.45 37.3261C336.894 37.177 336.157 37.1025 335.238 37.1025C333.593 37.1025 332.183 37.5603 331.008 38.4757C329.833 39.3698 328.84 40.6897 328.028 42.4355V62.8409H320.112Z" fill="white"/>
<path d="M346.372 62.8409V15.3878H354.288V34.1008C355.591 32.717 357.065 31.6206 358.711 30.8117C360.356 29.9814 362.278 29.5663 364.479 29.5663C366.274 29.5663 367.908 29.9388 369.382 30.684C370.878 31.4078 372.16 32.4722 373.229 33.8773C374.318 35.2824 375.151 37.0174 375.729 39.0825C376.327 41.1475 376.626 43.5212 376.626 46.2036C376.626 48.6518 376.294 50.9191 375.632 53.0054C374.97 55.0917 374.019 56.9013 372.78 58.4341C371.562 59.9669 370.077 61.1697 368.326 62.0426C366.595 62.8941 364.651 63.3199 362.493 63.3199C361.488 63.3199 360.569 63.2135 359.736 63.0006C358.903 62.8089 358.145 62.5323 357.461 62.1703C356.777 61.8084 356.137 61.372 355.538 60.8611C354.961 60.3288 354.406 59.7434 353.872 59.1047L353.519 61.3081C353.39 61.8617 353.166 62.2555 352.846 62.4896C352.547 62.7238 352.13 62.8409 351.596 62.8409H346.372ZM361.755 35.6975C360.11 35.6975 358.7 36.0488 357.525 36.7513C356.371 37.4325 355.292 38.4012 354.288 39.6573V54.3466C355.185 55.4537 356.157 56.2307 357.204 56.6777C358.273 57.1035 359.427 57.3165 360.666 57.3165C361.862 57.3165 362.941 57.0929 363.903 56.6459C364.864 56.1988 365.676 55.5175 366.338 54.6021C367.022 53.6867 367.545 52.5371 367.908 51.1533C368.272 49.7482 368.453 48.0983 368.453 46.2036C368.453 44.2876 368.293 42.6696 367.972 41.3497C367.673 40.0085 367.235 38.9228 366.659 38.0925C366.082 37.2622 365.377 36.6555 364.543 36.2723C363.732 35.8891 362.802 35.6975 361.755 35.6975Z" fill="white"/>
<path d="M408.598 62.8409H405.04C404.292 62.8409 403.705 62.7344 403.278 62.5216C402.85 62.2874 402.53 61.8297 402.317 61.1484L401.611 58.8173C400.778 59.5624 399.955 60.2224 399.144 60.7971C398.353 61.3507 397.531 61.819 396.676 62.2023C395.821 62.5854 394.914 62.8729 393.951 63.0644C392.99 63.256 391.922 63.3519 390.747 63.3519C389.358 63.3519 388.076 63.1709 386.901 62.8089C385.726 62.4258 384.711 61.8617 383.856 61.1165C383.024 60.3714 382.371 59.4453 381.902 58.3383C381.432 57.2313 381.197 55.9433 381.197 54.4743C381.197 53.2396 381.517 52.0262 382.158 50.834C382.82 49.6204 383.91 48.5347 385.427 47.5767C386.944 46.5974 388.963 45.7885 391.484 45.1497C394.005 44.5111 397.135 44.1492 400.874 44.064V42.148C400.874 39.9553 400.404 38.3373 399.464 37.2942C398.545 36.2297 397.199 35.6975 395.426 35.6975C394.144 35.6975 393.076 35.8465 392.222 36.1446C391.367 36.4426 390.619 36.7832 389.978 37.1664C389.358 37.5283 388.782 37.8583 388.247 38.1564C387.713 38.4544 387.126 38.6034 386.484 38.6034C385.95 38.6034 385.491 38.4651 385.107 38.1883C384.722 37.9115 384.412 37.571 384.177 37.1664L382.734 34.6436C386.517 31.1948 391.078 29.4705 396.419 29.4705C398.343 29.4705 400.052 29.7898 401.547 30.4285C403.064 31.0458 404.346 31.9187 405.393 33.047C406.439 34.154 407.23 35.4846 407.765 37.0387C408.32 38.5927 408.598 40.2959 408.598 42.148V62.8409ZM393.214 57.9231C394.026 57.9231 394.774 57.8486 395.458 57.6996C396.142 57.5506 396.783 57.3271 397.381 57.029C398 56.731 398.588 56.3691 399.144 55.9433C399.72 55.4962 400.298 54.9747 400.874 54.3786V48.854C398.567 48.9605 396.633 49.1628 395.073 49.4608C393.535 49.7376 392.296 50.0995 391.356 50.5465C390.416 50.9936 389.743 51.5152 389.337 52.1113C388.952 52.7074 388.76 53.3567 388.76 54.0592C388.76 55.443 389.165 56.4329 389.978 57.029C390.811 57.6251 391.89 57.9231 393.214 57.9231Z" fill="white"/>
<path d="M435.899 36.4639C435.685 36.8045 435.461 37.0494 435.226 37.1984C434.991 37.3261 434.692 37.39 434.328 37.39C433.944 37.39 433.527 37.2835 433.079 37.0707C432.651 36.8577 432.149 36.6236 431.572 36.3681C430.996 36.0913 430.333 35.8465 429.585 35.6337C428.859 35.4207 427.994 35.3143 426.989 35.3143C425.43 35.3143 424.201 35.6443 423.303 36.3043C422.406 36.9642 421.957 37.8264 421.957 38.8908C421.957 39.5934 422.182 40.1895 422.63 40.6791C423.101 41.1475 423.71 41.5626 424.458 41.9245C425.227 42.2864 426.092 42.6164 427.053 42.9144C428.015 43.1912 428.997 43.4999 430.002 43.8405C431.006 44.1811 431.989 44.575 432.95 45.0221C433.912 45.4478 434.766 46.0013 435.514 46.6826C436.283 47.3425 436.893 48.1409 437.341 49.0776C437.811 50.0144 438.046 51.1426 438.046 52.4625C438.046 54.038 437.757 55.4962 437.181 56.8374C436.604 58.1574 435.76 59.3069 434.649 60.2862C433.538 61.2442 432.16 62 430.515 62.5535C428.891 63.0857 427.022 63.3519 424.906 63.3519C423.774 63.3519 422.663 63.2454 421.574 63.0325C420.505 62.8409 419.469 62.5641 418.464 62.2023C417.482 61.8403 416.563 61.4146 415.708 60.9249C414.875 60.4353 414.138 59.903 413.497 59.3283L415.324 56.3265C415.559 55.9646 415.836 55.6878 416.157 55.4962C416.478 55.3047 416.883 55.2088 417.375 55.2088C417.866 55.2088 418.326 55.3472 418.753 55.624C419.201 55.9008 419.714 56.1988 420.292 56.5181C420.868 56.8374 421.541 57.1355 422.311 57.4123C423.101 57.689 424.094 57.8274 425.291 57.8274C426.231 57.8274 427.033 57.7209 427.695 57.508C428.379 57.2738 428.934 56.9758 429.361 56.6139C429.809 56.2519 430.13 55.8368 430.323 55.3685C430.536 54.8789 430.643 54.3786 430.643 53.8676C430.643 53.1012 430.407 52.4732 429.938 51.9835C429.489 51.4939 428.88 51.0681 428.111 50.7062C427.363 50.3443 426.498 50.0249 425.515 49.7482C424.554 49.4501 423.56 49.1308 422.535 48.7902C421.53 48.4496 420.537 48.0557 419.555 47.6086C418.592 47.1403 417.727 46.5549 416.958 45.8523C416.21 45.1498 415.601 44.2876 415.132 43.2657C414.683 42.2438 414.459 41.0091 414.459 39.5614C414.459 38.2202 414.725 36.9429 415.26 35.7295C415.794 34.516 416.573 33.4622 417.6 32.568C418.646 31.6526 419.938 30.9288 421.477 30.3965C423.037 29.8431 424.831 29.5663 426.861 29.5663C429.126 29.5663 431.188 29.9388 433.046 30.684C434.905 31.4291 436.455 32.4083 437.693 33.6219L435.899 36.4639Z" fill="white"/>
<path d="M457.95 29.5663C460.022 29.5663 461.924 29.8963 463.654 30.5562C465.406 31.2161 466.912 32.1848 468.173 33.4622C469.433 34.7182 470.416 36.2723 471.122 38.1244C471.826 39.9553 472.179 42.0522 472.179 44.4153C472.179 45.0114 472.147 45.5117 472.083 45.9162C472.04 46.2994 471.944 46.6081 471.795 46.8422C471.666 47.0552 471.485 47.2148 471.249 47.3213C471.014 47.4065 470.715 47.449 470.352 47.449H450.034C450.269 50.8126 451.176 53.2822 452.757 54.8576C454.339 56.4329 456.432 57.2206 459.039 57.2206C460.321 57.2206 461.421 57.0716 462.34 56.7735C463.281 56.4755 464.092 56.1456 464.776 55.7836C465.481 55.4217 466.09 55.0917 466.602 54.7937C467.137 54.4956 467.649 54.3466 468.141 54.3466C468.461 54.3466 468.739 54.4105 468.974 54.5382C469.209 54.6659 469.412 54.8469 469.583 55.0811L471.89 57.9551C471.014 58.977 470.031 59.8392 468.942 60.5417C467.852 61.2229 466.71 61.7765 465.513 62.2023C464.337 62.6068 463.131 62.8941 461.891 63.0644C460.673 63.2347 459.488 63.3199 458.334 63.3199C456.048 63.3199 453.922 62.9474 451.956 62.2023C449.991 61.4359 448.281 60.3182 446.829 58.8492C445.376 57.359 444.233 55.5282 443.399 53.3567C442.567 51.1639 442.15 48.6305 442.15 45.7565C442.15 43.5212 442.513 41.4242 443.24 39.4656C443.966 37.4858 445.002 35.772 446.348 34.3243C447.716 32.8554 449.372 31.6952 451.316 30.8436C453.281 29.9921 455.493 29.5663 457.95 29.5663ZM458.11 35.2185C455.803 35.2185 453.997 35.8678 452.693 37.1664C451.391 38.4651 450.557 40.3065 450.194 42.6909H465.064C465.064 41.6691 464.926 40.711 464.647 39.8169C464.37 38.9015 463.943 38.1031 463.365 37.4219C462.789 36.7407 462.062 36.2084 461.187 35.8252C460.31 35.4207 459.285 35.2185 458.11 35.2185Z" fill="white"/>
<path d="M25.0265 34.1716L0 61.5378L68.6989 78.037C73.1985 79.1176 76.8913 74.4311 74.7701 70.3321L61.565 44.814L74.1784 7.21082L16.7318 0.327478C12.406 -0.190841 9.27368 4.34162 11.3025 8.18354L25.0265 34.1716Z" fill="white"/>
</svg>
